<?xml version="1.0" encoding="UTF-8"?>
<svg id="Layer_1" data-name="Layer 1" xmlns="http://www.w3.org/2000/svg" viewBox="0 0 800 191.19">
  <defs>
    <style>
      .cls-1 {
        fill: #231f20;
      }
    </style>
  </defs>
  <path class="cls-1" d="M146.92,40.23c-.31,20.79-36.52,80.27-60.19,116.29l-2.03,2.9-6.35-65.04,35.79-54.15h-18.27c-.14,8.95-7.8,25.38-18.54,44l-4.23-44h-19.02s6.01,68.18,6.01,68.18c-10.48,17.65-21.28,34.57-30.16,48.11l-2.03,2.9-9.11-119.19H0s10.2,150.62,10.2,150.62h1.75s48.55-74.7,48.55-74.7l6.51,74.7h1.5S165.19,40.23,165.19,40.23h-18.27Z"/>
  <path class="cls-1" d="M409.32,0c-47,0-62.91,60.41-62.91,97.7,0,35.8,14.67,93.49,59.92,93.49,46.98,0,62.91-60.43,62.91-97.72,0-35.8-14.67-93.47-59.92-93.47ZM422.49,179.24c-18.65,0-34.56-19.63-43.26-34.04-13.17-21.64-21.38-48.73-21.38-74.35,0-20.64,8.7-58.91,35.05-58.91,18.9,0,34.81,19.89,43.52,34.3,13.17,21.64,21.38,48.73,21.38,74.09,0,20.64-8.7,58.91-35.3,58.91Z"/>
  <path class="cls-1" d="M673.71,88.25v62.65S585.69,2.22,585.69,2.22h-13.69s0,.26,0,.26h-9.79c8.4,6.37,9.58,46.74,9.71,68.98v.3s-.11,74.84-.11,74.84c-1.28,23.46-17.17,37.36-36.44,37.36-20.4,0-36.8-15.16-36.8-40.52V2.48s-19.4,0-19.4,0v142.2c0,31.33,25.85,46.51,49.72,46.51,16.34,0,33.72-7.25,42.9-22.07l-.02,19.57h16.66c-7.95-6.46-9.71-40.03-9.94-86.01v-17.26s.11-54.42.11-54.42l93.62,157.68h8.21s.24-186.47.24-186.47h-16.66c7.95,6.48,9.45,40.03,9.71,86.03Z"/>
  <path class="cls-1" d="M780.63,100.67v68.88c-4.73,2.48-10.2,3.72-15.67,3.72-42.77,0-63.4-67.87-63.4-102.17,0-26.86,10.69-61.91,43.26-61.91,24.12,0,36.54,22.62,40.52,43.75h1.75s6.95-35.8,6.95-35.8C781.87,6.95,769.19,0,752.76,0c-47.96,0-62.63,59.4-62.63,97.7,0,35.8,14.67,93.49,59.92,93.49,13.66,0,25.34-7.72,33.06-18.9l14.67,18.9h2.22s0-90.52,0-90.52h-19.37Z"/>
  <path class="cls-1" d="M361.51,2.23h-21.37c-.11,2.86.02,3.27-.06,5.94-1.75,60.87-24.53,101.22-60.75,101.22-29.94,0-56.07,36.07-63,46.5-1.84,2.77-3.87,5.39-6.25,7.7-5.85,5.66-13.1,9.84-20.77,9.84-32.04,0-36.61-61.41-29.81-86.79l.52-1.93h73.58c4.54-17.89.43-47.39-21.59-47.39-37.54,0-62.83,48.6-70.41,76.88-7.51,28.04-8.64,76.15,28.15,76.15,20.02,0,33.85-13.3,46.2-29.49,35.77-44.51,56.42-39.62,63.98-39.76,2.01-.04,3.63-.11,5.77-.33v67.9s19.63,0,19.63,0v-78.78c33.84-29.96,56.18-107.68,56.18-107.68ZM191.44,49.66c16.77,0,21.5,16.92,22.37,30.46h-52.31c3.8-11.36,15.42-30.46,29.94-30.46Z"/>
  <path class="cls-1" d="M296.4,82.28L257.11,2.22h-22.62s48.75,101.99,48.82,101.98c9.38-1.03,16.99-13.33,13.1-21.93Z"/>
</svg>